<svg xmlns="http://www.w3.org/2000/svg" width="1578" height="1507" viewBox="6.47 0.091 272.06 259.819">
  <defs>
    <style>
      .cls-1 {
        fill: #636363;
      }

      .cls-1, .cls-2, .cls-3 {
        fill-rule: evenodd;
      }

      .cls-2 {
        fill: #606060;
      }

      .cls-3 {
        fill: #0c783c;
      }
    </style>
  </defs>
  <path class="cls-1" d="M218,249h3v2h3l1-1h2v-5l-3-1h-6v5Z"/>
  <path class="cls-2" d="M113,123v6l3,5,2,5,2,5,2,3,1,2,1,2,4,6,3,5,3,4,3,3,3,3,3,4,4,4,4,4,11,10,8,5,4,2,4,3,13,8,8,4,6,3,11,4,10,4,12,4,11,2,7,2,9,1h8v-2l-2-3-1-3-5-1-2-3-8-4-6-4-6-4-13-10-9-8-9-7-5-5-5-6-6-7-3-3-4-6v-3l4-1,6-1,4-2,9-2,7-4,6-3,7-5,6-6,7-7,4-9,4-10,2-10,1-9V72l-4-11-6-11-5-6-9-8-10-7-9-5-11-4-8-3-18-3-20-2-3-2H97v2H77v7L93,34l15,15h13l2-2h23l3,1,10,1,4,1,8,1,6,2,5,2,7,3,5,3,4,4,3,5,4,5,1,4,1,6v6l-1,4-1,3-2,3-2,4-3,3-3,3-4,2-5,2-5,3-6,1-7,2-7,1-2,1H113Z"/>
  <path class="cls-3" d="M37,19H35l-2,1-1,2v3L9,112v2H28l6,5,2,12,3,7,3,5,6,11,5,9,4,6,4,6,3,4,3,3,3,3,8,9,9,9,12,10,11,8,7,4,9,5,12,5,15,5,15,4,11,2,4,1h19l5,2h11v-4l-11-4-5-3-9-3-6-4-10-4-11-6-9-5-8-5-5-4-6-4-5-4-6-5-5-5-4-4-5-5-4-5-3-4-4-6-3-5-4-7-3-5-2-5-3-8-2-6-2-5v-7h57v-6l-11-10Z"/>
</svg>
